<svg width="652" height="652" viewBox="0 0 652 652" fill="none" xmlns="http://www.w3.org/2000/svg">
<path d="M196.5 341.4C196.5 351.7 192.2 361.5 184.5 368.4C184 368.9 183.2 368.8 182.7 368.4C179.9 365.9 176.5 363.5 173 362.2C170.8 361.4 167.3 360.8 167.3 357.8C167.3 357.2 167.5 356.6 167.8 356C167.8 355.9 167.9 355.9 167.9 355.8C170.8 351.6 172.7 346.7 173.5 341.7C173.7 340.4 173.8 339 173.9 337.7C173.5 330.3 167.4 324.5 160 324.5C152.6 324.5 146.5 330.3 146.1 337.7C146.1 339 146.3 340.4 146.5 341.7C147.3 346.8 149.2 351.6 152.1 355.8C152.1 355.9 152.2 355.9 152.2 356C152.5 356.5 152.7 357.1 152.7 357.8C152.7 360.8 149.5 361.1 147.3 362C146.9 362.2 146.6 362.5 146.5 362.9C146.4 363.3 146.5 363.7 146.8 364C147.7 365 148.5 366 149.3 367C151.7 370.1 153.8 373.5 155.5 377.1V377.2C155.5 377.3 155.6 377.3 155.6 377.4C155.6 377.4 155.6 377.5 155.6 377.6C155.6 377.7 155.6 377.8 155.6 377.9C155.6 378.5 155.2 379 154.6 379.1C154.5 379.1 154.4 379.1 154.4 379.1C154.1 379.1 153.7 379 153.5 378.7C146 370.8 137.7 364.6 127.1 361.5C126.8 361.4 126.6 361.3 126.4 361.2C126.3 361.1 126.1 361 126 360.9C123.5 359.3 123.1 356.2 124.5 353.7C126.4 350.1 128.7 346.8 130.3 343C134.3 333.2 136.8 321.1 130.1 311.8C125.9 305.9 119.1 302.5 111.8 302.5C104.6 302.5 97.8001 306 93.5001 311.8C86.8001 321 89.3001 333.2 93.3001 343C94.9001 346.8 97.2001 350.1 99.1001 353.7C100.4 356.2 100 359.3 97.6001 360.9C97.5001 361 97.3001 361.1 97.2001 361.2C97.0001 361.3 96.7001 361.4 96.5001 361.5C85.9001 364.6 77.6001 370.8 70.1001 378.7C69.9001 378.9 69.5001 379.1 69.2001 379.1C69.1001 379.1 69.0001 379.1 69.0001 379.1C68.4001 379 68.0001 378.5 68.0001 377.9C68.0001 377.8 68.0001 377.7 68.0001 377.6C68.0001 377.5 68.0001 377.5 68.0001 377.4C68.0001 377.3 68.1001 377.2 68.1001 377.2V377.1C69.8001 373.5 71.9001 370.1 74.3001 367C75.1001 366 75.9001 364.9 76.8001 364C77.1001 363.7 77.2001 363.3 77.1001 362.9C77.0001 362.5 76.7001 362.2 76.3001 362C74.2001 361.1 70.9001 360.7 70.9001 357.8C70.9001 357.2 71.1001 356.6 71.4001 356C71.4001 355.9 71.5001 355.9 71.5001 355.8C74.4001 351.6 76.3001 346.7 77.1001 341.7C77.3001 340.4 77.4001 339 77.5001 337.7C77.1001 330.3 71.0001 324.5 63.6001 324.5C56.2001 324.5 50.1001 330.3 49.7001 337.7C49.7001 339 49.9001 340.4 50.1001 341.7C50.9001 346.8 52.8001 351.6 55.7001 355.8C55.7001 355.9 55.8001 355.9 55.8001 356C56.1001 356.5 56.3001 357.1 56.3001 357.8C56.3001 360.8 52.7001 361.4 50.6001 362.2C47.0001 363.6 43.7001 365.9 40.9001 368.4C40.4001 368.9 39.6001 368.9 39.1001 368.4C28.4001 358.7 24.5001 343.7 29.0001 330C33.5001 316.3 45.6001 306.5 59.9001 305.1C60.4001 305 60.8001 304.8 60.9001 304.3C69.7001 284 89.7001 270.8 111.8 270.8C133.9 270.8 153.9 284 162.7 304.3C162.9 304.7 163.3 305 163.7 305.1C182.3 307 196.5 322.7 196.5 341.4Z" fill="#070708"/>
<path d="M267.7 311C267.7 314.3 267.1 317.3 266 319.9C263.8 319.7 261.4 319.5 260 319.5C257.8 319.5 254.6 319.9 252.6 320.9C250.3 322 248.7 324 248.7 328.4V359.4C245.8 360.8 242.5 361.3 238.7 361.3V323.9C238.7 318 241 314.9 246.3 312.7C250.4 311 255.7 310.2 259.8 310.2C262.5 310.1 265.2 310.4 267.7 311ZM297.6 361.2C281 361.2 270.8 350.8 270.8 335.7C270.8 320.6 280.8 310.2 296.2 310.2C309.2 310.2 318.6 317.7 318.6 330C318.6 337.2 315.3 339.4 307.7 339.4H281C282.4 347.6 288.8 352.2 298.1 352.2C302.7 352.2 307.5 351.1 310.9 350C312.1 352.5 312.6 355.4 312.6 358.7C307.7 360.3 302.7 361.1 297.6 361.2ZM304.6 331.4C307.9 331.4 308.8 330 308.8 327.9C308.8 322.3 302.8 318.9 296.1 318.9C288.5 318.9 282.5 323.4 281 331.5H304.6V331.4ZM325 335.7C325 320.7 335.2 310.2 351.8 310.2C356.8 310.2 361.7 311.1 366.3 312.7C366.3 316 365.8 318.8 364.6 321.3C360.7 320 356.5 319.3 352.4 319.2C341.7 319.2 335 325.7 335 335.7C335 345.7 341.7 352 352.2 352C356.7 352 361.6 350.9 364.9 349.7C366 352.3 366.6 355.2 366.6 358.6C361.8 360.3 356.8 361.2 351.8 361.2C335.2 361.2 325 350.7 325 335.7ZM405.5 311C405.5 314.3 404.9 317.3 403.8 319.9C401.6 319.7 399.2 319.5 397.8 319.5C395.5 319.5 392.4 319.9 390.4 320.9C388.1 322 386.5 324 386.5 328.4V359.4C383.6 360.8 380.3 361.3 376.5 361.3V323.9C376.5 318 378.8 314.9 384.1 312.7C388.2 311 393.5 310.2 397.6 310.2C400.3 310.1 402.9 310.4 405.5 311ZM422.6 338.4C422.6 346.1 426.8 352 434.7 352C436 352 439.2 351.8 441.9 350.8C444.7 349.7 445.7 347.9 445.7 345.2V312.1C448.6 310.7 451.9 310.2 455.7 310.2V347.6C455.7 353.5 453.3 356.7 448.1 358.8C444 360.4 438.1 361.3 433.8 361.3C420.7 361.3 412.6 352.7 412.6 339.4V312.2C415.5 310.8 418.8 310.3 422.6 310.3C422.6 310.1 422.6 338.4 422.6 338.4ZM480.6 295.3C480.6 298.9 477.7 301.9 474 301.9C470.4 301.9 467.4 299 467.4 295.3C467.4 291.7 470.3 288.7 474 288.7C475.7 288.7 477.4 289.4 478.6 290.6C479.9 291.9 480.6 293.6 480.6 295.3ZM479 359.2C476.1 360.6 472.8 361.1 469 361.1V312C471.9 310.6 475.2 310.1 479 310.1V359.2ZM506 320.2V343.8C506 350.8 510.7 352 519.3 352C519.3 355.4 518.8 358.3 517.6 360.8C516.4 361.1 515.2 361.2 514 361.2C508.8 361.2 500.9 360 497.7 353C496.3 349.9 496.1 346.3 496.1 342.4V320.3H487.3C487.3 316.8 487.8 313.8 489.1 311.2H496.2V297.3C499.1 295.9 502.4 295.4 506.2 295.4V311.3H519.8C519.8 314.7 519.3 317.8 518 320.4L506 320.2ZM551.9 361.2C535.3 361.2 525.1 350.8 525.1 335.7C525.1 320.6 535.1 310.2 550.5 310.2C563.5 310.2 572.9 317.7 572.9 330C572.9 337.2 569.6 339.4 562 339.4H535.3C536.7 347.6 543.1 352.2 552.4 352.2C557 352.2 561.8 351.1 565.2 350C566.4 352.5 566.9 355.4 566.9 358.7C562 360.3 556.9 361.1 551.9 361.2ZM558.9 331.4C562.2 331.4 563.1 330 563.1 327.9C563.1 322.3 557.1 318.9 550.4 318.9C542.8 318.9 536.8 323.4 535.3 331.5H558.9V331.4ZM606.1 361.2C589.5 361.2 579.3 350.8 579.3 335.7C579.3 320.6 589.3 310.2 604.7 310.2C617.7 310.2 627.1 317.7 627.1 330C627.1 337.2 623.8 339.4 616.2 339.4H589.5C590.9 347.6 597.3 352.2 606.6 352.2C611.2 352.2 616 351.1 619.4 350C620.6 352.5 621.1 355.4 621.1 358.7C616.2 360.3 611.2 361.1 606.1 361.2ZM613.2 331.4C616.5 331.4 617.4 330 617.4 327.9C617.4 322.3 611.4 318.9 604.7 318.9C597.1 318.9 591.1 323.4 589.6 331.5H613.2V331.4Z" fill="#070708"/>
</svg>
