<svg width="175" height="25" viewBox="0 0 175 25" fill="none" xmlns="http://www.w3.org/2000/svg">
<g clip-path="url(#clip0_18_11)">
<path d="M43.6999 22.3C39.5999 22.3 37.6999 19 37.6999 15.9C37.6999 12.7 39.6999 9.5 43.7999 9.5C46.9999 9.5 49.6999 12.1 49.6999 16C49.5999 19.7 46.7999 22.3 43.6999 22.3ZM49.3999 10.1C48.1999 8.80001 46.4999 7.20001 43.4999 7.20001C38.5999 7.20001 34.8999 10.9 34.8999 16C34.8999 21.4 38.8999 24.8 43.3999 24.8C46.1999 24.8 48.1999 23.5 49.3999 22H49.4999V24.2H52.1999V7.79999H49.4999V10.1H49.3999Z" fill="black"/>
<path d="M73.3 7.20001C70.4 7.20001 68.4 8.90001 67.6 10.6C66.9 8.70001 64.8 7.20001 62.2 7.20001C60.1 7.20001 58.4 8.29999 57.3 9.79999H57.2V7.70001H54.5V24.1H57.2V15C57.2 11.6 59 9.60001 61.7 9.60001C64.1 9.60001 65.6 11.7 65.6 14.4V24.2H68.4V15C68.4 11.2 70.6 9.60001 72.9 9.60001C75.7 9.60001 76.9 11.8 76.9 14.4V24.2H79.6V14.6C79.6 9.70001 77 7.20001 73.3 7.20001Z" fill="black"/>
<path d="M109.8 22.3C106.6 22.3 103.8 19.7 103.8 15.9C103.8 12.3 106.3 9.60001 109.8 9.60001C113.4 9.60001 115.8 12.4 115.8 15.9C115.8 19.5 113.3 22.3 109.8 22.3ZM109.8 7.20001C104.8 7.20001 101 10.9 101 16C101 21 104.8 24.8 109.8 24.8C114.9 24.8 118.6 20.8 118.6 16C118.6 10.9 114.9 7.20001 109.8 7.20001Z" fill="black"/>
<path d="M129.2 22.3C126 22.3 123.2 19.7 123.2 15.9C123.2 12.3 125.7 9.60001 129.2 9.60001C132.8 9.60001 135.2 12.4 135.2 15.9C135.1 19.5 132.6 22.3 129.2 22.3ZM129.2 7.20001C124.2 7.20001 120.4 10.9 120.4 16C120.4 21 124.2 24.8 129.2 24.8C134.3 24.8 138 20.8 138 16C138 10.9 134.3 7.20001 129.2 7.20001Z" fill="black"/>
<path d="M150.9 14.8H142.1V7.79999H140.1V24.2H142.1V16.6H150.9V24.2H152.9V7.79999H150.9V14.8Z" fill="black"/>
<path d="M157.9 15.5V9.60001H160.9C163 9.60001 164.2 10.7 164.2 12.6C164.2 14.2 163.1 15.5 160.9 15.5H157.9ZM162.4 17.1C164.5 16.7 166.2 14.9 166.2 12.6C166.2 10.3 164.7 7.79999 160.6 7.79999H155.9V24.2H157.9V17.4H160.1L165.1 24.2H167.6L162.4 17.1Z" fill="black"/>
<path d="M168.2 7.79999H170.8V8.20001H169.7V11.4H169.2V8.20001H168.2V7.79999Z" fill="black"/>
<path d="M173.1 10.3L174.2 7.79999H174.8L175 11.4H174.5L174.4 8.5L173.3 10.9H172.9L171.8 8.5L171.7 11.4H171.2L171.4 7.79999H172L173.1 10.3Z" fill="black"/>
<path d="M23.6999 22.5C20.2999 22.5 17.3999 19.8 17.3999 16.2C17.3999 12.6 19.8999 9.60001 23.7999 9.60001C27.7999 9.60001 30.0999 12.8 30.0999 16.1C30.0999 19.7 27.5999 22.5 23.6999 22.5ZM23.9999 7C20.7999 7 19.0999 8.09999 17.8999 9.29999L17.5999 9.60001V-1H14.8999V16.3C14.8999 21.6 18.9999 25 23.6999 25C28.8999 25 32.7999 21 32.7999 15.9C32.8999 11.1 28.6999 7 23.9999 7Z" fill="black"/>
<path d="M90.4001 22.5C87.0001 22.5 84.1001 19.8 84.1001 16.2C84.1001 12.6 86.6001 9.60001 90.5001 9.60001C94.5001 9.60001 96.8001 12.8 96.8001 16.1C96.7001 19.7 94.3001 22.5 90.4001 22.5ZM90.7001 7C87.5001 7 85.8001 8.09999 84.6001 9.29999L84.3001 9.60001V0.600006H81.6001V16.3C81.6001 21.6 85.7001 25 90.4001 25C95.6001 25 99.5001 21 99.5001 15.9C99.5001 11.1 95.4001 7 90.7001 7Z" fill="black"/>
<path d="M13.6 10.5C13.6 10.5 12.4 10.3 11.4 10.1C10.3 9.90001 9.8 9.80001 8.3 9.20001C6.9 8.60001 5.5 7.20001 4.3 5.60001C3 4.00001 0 1.5 0 1.5C0 1.5 0.899994 1.59999 1.89999 1.79999C2.69999 1.99999 4.7 2.60001 6.7 3.70001C7.2 3.90001 7.39999 4.09999 7.89999 4.39999C8.59999 4.79999 9.3 5.50001 10 6.20001C10.8 7.00001 11.5 7.69999 12.1 8.39999C11.4 7.19999 9.69999 2.80001 6.39999 -0.799987C6.09999 -1.19999 8.69999 0.500013 9.39999 1.20001C11.4 3.40001 11.7 4.60001 12.4 6.60001L13.6 10.5Z" fill="black"/>
</g>
<defs>
<clipPath id="clip0_18_11">
<rect width="175" height="25" fill="white"/>
</clipPath>
</defs>
</svg>
