<?xml version="1.0" standalone="no"?>
<!DOCTYPE svg PUBLIC "-//W3C//DTD SVG 20010904//EN"
 "http://www.w3.org/TR/2001/REC-SVG-20010904/DTD/svg10.dtd">
<svg version="1.0" xmlns="http://www.w3.org/2000/svg"
 width="392.000000pt" height="129.000000pt" viewBox="0 0 392.000000 129.000000"
 preserveAspectRatio="xMidYMid meet">

<g transform="translate(0.000000,129.000000) scale(0.100000,-0.100000)"
fill="#000000" stroke="none">
<path d="M1580 1265 c0 -8 9 -15 20 -15 11 0 29 -9 40 -20 19 -19 20 -33 20
-451 0 -277 -4 -437 -10 -450 -6 -11 -21 -19 -35 -19 -18 0 -25 -5 -25 -20 0
-19 7 -20 185 -20 178 0 185 1 185 20 0 13 -7 20 -18 20 -40 0 -42 15 -42 265
l0 242 25 23 c35 33 87 32 120 -1 36 -36 47 -115 43 -319 -3 -185 -9 -210 -49
-210 -12 0 -19 -7 -19 -20 0 -19 7 -20 185 -20 178 0 185 1 185 20 0 15 -7 20
-25 20 -18 0 -28 7 -35 26 -6 14 -10 125 -10 247 0 214 -1 224 -24 274 -62
131 -237 152 -348 41 l-48 -47 0 214 0 215 -160 0 c-136 0 -160 -2 -160 -15z"/>
<path d="M2380 1265 c0 -8 9 -15 19 -15 10 0 29 -9 42 -19 l24 -19 3 -472 3
-472 207 5 c150 3 221 9 257 21 154 48 236 171 237 355 1 183 -92 305 -242
318 -77 7 -135 -14 -189 -69 l-41 -40 0 211 0 211 -160 0 c-136 0 -160 -2
-160 -15z m459 -399 c66 -35 96 -133 89 -297 -4 -101 -9 -126 -31 -171 -33
-67 -67 -88 -141 -88 l-56 0 0 246 c0 212 2 250 17 274 28 48 73 61 122 36z"/>
<path d="M421 1198 c-5 -13 -72 -205 -151 -428 -83 -237 -151 -414 -163 -428
-12 -12 -41 -28 -64 -34 -25 -6 -43 -16 -43 -24 0 -11 29 -14 150 -14 121 0
150 3 150 14 0 9 -17 16 -45 20 -56 9 -79 30 -70 64 3 14 24 79 47 144 l40
118 128 0 128 0 30 -77 c60 -159 75 -210 69 -225 -3 -10 -23 -19 -51 -23 -29
-5 -46 -12 -46 -21 0 -12 41 -14 230 -14 187 0 230 3 230 14 0 7 -14 17 -31
22 -18 5 -40 20 -50 34 -11 14 -75 171 -145 350 -69 179 -144 371 -166 428
l-40 102 -64 0 c-58 0 -65 -2 -73 -22z m34 -378 c30 -78 55 -144 55 -146 0 -2
-49 -4 -110 -4 -60 0 -110 2 -110 5 0 4 78 236 95 284 3 8 8 12 11 9 2 -3 29
-69 59 -148z"/>
<path d="M1206 954 c-94 -34 -146 -104 -146 -198 0 -105 36 -151 180 -228 119
-63 150 -91 150 -134 0 -46 -9 -63 -41 -79 -58 -31 -138 -15 -186 37 -27 29
-62 105 -63 136 0 15 -6 22 -20 22 -19 0 -20 -7 -20 -120 0 -113 1 -120 20
-120 11 0 20 7 20 15 0 21 29 19 81 -5 55 -25 157 -26 224 -3 139 47 200 220
119 336 -20 28 -56 57 -109 89 -153 89 -165 98 -176 125 -20 52 23 103 87 103
67 0 126 -51 147 -127 8 -30 16 -43 29 -43 16 0 18 11 18 100 0 93 -1 100 -20
100 -11 0 -20 -4 -20 -9 0 -19 -30 -19 -79 0 -60 22 -139 24 -195 3z"/>
<path d="M3170 941 c0 -13 9 -20 30 -24 26 -6 35 -19 76 -104 26 -54 91 -190
145 -303 l99 -204 -24 -41 c-13 -22 -28 -50 -35 -62 l-11 -22 -38 25 c-88 60
-194 -17 -168 -122 18 -72 124 -101 179 -50 30 28 130 230 297 601 62 138 120
258 128 268 8 9 25 17 37 17 27 0 35 8 28 26 -4 11 -31 14 -119 14 -107 0
-114 -1 -114 -20 0 -16 7 -20 34 -20 40 0 68 -23 60 -48 -22 -68 -129 -301
-136 -294 -11 11 -138 304 -138 319 0 7 15 16 32 21 18 4 34 16 36 25 3 16
-14 17 -197 17 -190 0 -201 -1 -201 -19z"/>
</g>
</svg>
