<svg width="652" height="652" viewBox="0 0 652 652" fill="none" xmlns="http://www.w3.org/2000/svg">
<path d="M159.8 255.204C159.1 256.904 157.9 258.504 156.5 259.704C143 273.304 129.4 286.804 116.2 300.604C108.4 308.804 100.1 316.704 92.2001 324.904C81.4001 336.404 69.9 347.204 59.1 358.604C47.4 370.704 35.3 382.304 23.7 394.604C23.2 395.004 22.9 395.404 22.6 395.904C21.1 395.804 20.8 394.604 20.6 393.404C20.5 392.704 20.5001 391.904 20.5001 391.204V358.704C20.4001 354.404 22.2 350.404 25.2 347.404C32 340.404 39 333.704 45.7 326.604C54.9 316.904 64.6 307.704 73.8 298.004C81 290.504 88.4 283.204 95.6 275.804C103.7 267.604 111.7 259.504 119.7 251.204C122.7 248.004 127.1 246.804 131.3 247.904C139 249.404 146.8 251.104 154.5 252.604C156.5 252.904 158.3 253.804 159.8 255.204Z" fill="black"/>
<path d="M165.6 295.204C160.6 300.504 155.3 305.504 150.2 310.604C148.4 312.304 146.7 314.104 145.1 316.004C143.7 317.604 142.1 319.004 140.4 320.304C131.8 328.904 123.2 337.404 114.7 346.004C110.7 350.004 106.3 353.704 102.4 357.804C100.5 359.804 98.9001 361.904 96.9001 363.804C87.1001 372.904 77.9001 382.704 68.3001 392.004C65.6001 394.504 62.1001 396.004 58.5001 396.104C47.3001 396.704 36.2001 396.504 25.1001 396.504C24.2001 396.504 23.2001 396.804 22.6001 396.104C22.9001 395.604 23.2001 395.104 23.7001 394.804C35.3001 382.504 47.4001 371.004 59.1001 358.804C70.0001 347.404 81.4001 336.604 92.2001 325.104C100 316.804 108.2 309.004 116.2 300.804C129.5 287.004 143 273.504 156.5 259.904C158 258.704 159.1 257.104 159.8 255.404C161.9 257.004 163.3 259.304 163.7 261.904C164.7 266.604 165.2 271.504 166.4 276.104C167.2 279.304 167.6 282.504 168.4 285.704C169.2 289.104 168.1 292.704 165.6 295.204Z" fill="black"/>
<path d="M606.1 347.604C605.7 347.004 605.2 346.404 604.8 345.804C603.8 344.304 603.8 344.104 605.5 343.604C606.3 343.404 607.1 343.104 607.8 342.804C611.3 341.404 614.1 338.704 615.5 335.204C619 327.204 615.4 317.904 607.4 314.404C606.4 314.004 605.3 313.604 604.3 313.404C601.7 312.904 599.1 312.604 596.5 312.604H578.7C576.3 312.604 576.3 312.604 576.3 315.004V365.004C576.3 368.204 576 367.904 579.3 367.904H584.7C588.2 367.904 587.8 368.304 587.8 364.704V346.904C587.8 345.104 588.4 344.804 589.9 345.404C591.4 345.904 592.7 346.904 593.5 348.304C594.5 349.604 595.5 351.004 596.4 352.304C599.5 357.004 602.6 361.804 605.7 366.704C606.1 367.404 606.5 368.104 607.6 368.104H620.6C615.6 360.804 611 354.004 606.1 347.604ZM599.9 335.804C596.1 336.604 592.3 336.904 588.4 336.604C587.5 336.604 587.5 335.804 587.5 335.204V329.004V322.804C587.5 322.004 587.7 321.504 588.6 321.504C592.1 321.204 595.6 321.404 599 322.104C602.9 322.904 605.5 326.704 604.7 330.604C604.6 331.204 604.4 331.904 604.1 332.504C603.2 334.004 601.7 335.304 599.9 335.804Z" fill="black"/>
<path d="M524.8 367.804H493.1C490.4 367.804 490.6 368.104 490.6 365.304V313.704C490.6 312.704 491 312.404 491.9 312.504H523.6C525.7 312.504 525.7 312.504 525.3 314.604C525.1 316.004 524.7 317.504 524.5 319.004C523.9 322.204 523.9 321.704 521.4 321.704H503.6C502.6 321.704 502.1 322.004 502.1 323.104V333.004C502.1 334.304 502.8 334.404 503.9 334.404H519.3C520.1 334.404 520.5 334.704 520.5 335.504V342.204C520.5 343.204 520.1 343.504 519.2 343.504H504.3C502.4 343.504 502.3 343.604 502.3 345.504V356.104C502.3 358.104 502.3 358.104 504.5 358.104H523.8C526.9 358.104 526.6 357.804 526.6 360.904C526.6 362.704 526.5 364.304 526.6 366.104C526.7 367.504 526.1 367.804 524.8 367.804Z" fill="black"/>
<path d="M351.9 367.804H320.6C318.6 367.804 318.6 367.804 318.6 365.704V313.704C318.6 312.804 319 312.504 319.8 312.604H352.3C353.2 312.604 353.7 312.904 353.5 313.904C353.1 316.104 352.7 318.304 352.3 320.504C352.1 321.704 351.2 321.704 350.3 321.704H334.4C330.1 321.704 330.1 321.704 330.1 326.004V332.404C330.1 334.304 330.2 334.404 332.1 334.404H345.7C348.7 334.404 348.5 334.304 348.5 337.104C348.5 338.804 348.4 340.404 348.5 342.104C348.5 343.304 348.1 343.604 347 343.604H333.2C330.4 343.604 330.4 343.604 330.4 346.304V355.504C330.4 358.304 330.4 358.304 333.3 358.304H352.3C354.5 358.304 354.5 358.304 354.5 360.604V365.304C354.5 368.004 354.8 367.804 351.9 367.804Z" fill="black"/>
<path d="M447.5 312.504C445.6 317.104 444.1 321.404 442.4 325.604C437.2 338.904 432 352.204 426.8 365.504C426.6 366.004 426.4 366.404 426.2 366.904C426 367.804 425.2 368.404 424.3 368.204C424.3 368.204 424.3 368.204 424.2 368.204C421.8 368.104 419.5 368.104 417 368.204C415.6 368.304 415 367.804 414.5 366.404C412.3 360.404 410 354.504 407.7 348.604C403.4 337.304 399.1 326.104 394.8 314.904C394.4 314.304 394.3 313.504 394.2 312.804C394.6 312.204 395.3 312.504 395.9 312.504H405.1C406.2 312.304 407.2 313.104 407.4 314.204C408.4 317.304 409.6 320.304 410.6 323.304C413.5 331.504 416.7 339.504 419.1 347.904C419.4 349.104 419.8 350.304 420 351.504C420.1 351.904 420.2 352.504 420.9 352.604C421.5 351.304 422 349.904 422.2 348.404C424.4 340.604 427.8 333.004 430.6 325.404C431.9 321.604 433.5 318.004 434.8 314.404C435 313.204 436.2 312.504 437.3 312.704C440.5 312.604 443.7 312.504 447.5 312.504Z" fill="black"/>
<path d="M164.4 396.004C163.5 396.304 162.6 396.404 161.7 396.304H101.8C100.7 396.404 99.6001 396.204 98.6001 396.004C97.2001 395.404 96.8001 394.604 97.8001 393.304C98.2001 392.804 98.7001 392.304 99.1001 391.904C105.5 385.904 111.7 379.804 118.2 374.004C121.3 371.204 124.2 368.104 127.5 365.504C129.5 363.504 132.7 363.304 134.9 365.104C135.5 365.404 136 365.904 136.4 366.304C142.7 372.204 148.8 378.104 155.2 383.904C158.3 386.704 161.1 389.604 164.3 392.304C164.7 392.604 165 393.004 165.3 393.404C166.1 394.704 165.8 395.404 164.4 396.004Z" fill="black"/>
<path d="M272.2 359.804C271.6 362.004 271.2 364.104 270.7 366.304C270.6 367.204 269.8 367.904 268.9 367.904H268.8H239.5C238 367.904 238 367.804 238 365.904V315.104C238 312.604 237.7 312.604 240.5 312.604H248.1C249.2 312.604 249.6 313.004 249.5 314.004V356.604C249.6 358.304 249.6 358.404 251.4 358.404H270.7C272.1 358.204 272.4 358.804 272.2 359.804Z" fill="black"/>
</svg>
