<?xml version="1.0" encoding="utf-8"?>
<!DOCTYPE svg PUBLIC "-//W3C//DTD SVG 20010904//EN" "http://www.w3.org/TR/2001/REC-SVG-20010904/DTD/svg10.dtd">
<svg height="102.000000pt" preserveAspectRatio="xMidYMid meet" version="1.0" viewBox="0 0 492.000000 102.000000" width="492.000000pt" xmlns="http://www.w3.org/2000/svg">
<g fill="#000000" stroke="none" transform="translate(0.000000,102.000000) scale(0.100000,-0.100000)">
<path d="M4848 1009 c-19 -10 -18 -8 -48 -218 -11 -80 -22 -146 -24 -148 -2 -3 -47 72 -100 166 -119 210 -127 219 -170 188 -19 -14 -53 -188 -76 -389 -14 -114 -11 -138 17 -138 37 0 44 19 73 185 17 92 31 170 33 171 2 2 28 -40 57 -94 68 -124 137 -233 158 -249 18 -15 41 -16 60 -5 15 10 42 146 72 362 21 147 21 155 4 167 -21 15 -33 16 -56 2z"/>
<path d="M4106 974 c-9 -9 -16 -32 -16 -54 0 -62 -39 -269 -59 -314 -26 -59 -52 -78 -102 -78 -34 1 -49 7 -73 32 -30 29 -31 33 -29 113 1 45 8 124 16 176 8 52 13 101 10 108 -6 16 -49 17 -59 1 -14 -23 -53 -255 -54 -318 0 -126 68 -200 183 -200 151 0 231 136 253 427 5 69 4 97 -6 108 -16 19 -44 19 -64 -1z"/>
<path d="M3211 970 c-47 -7 -71 -30 -71 -67 0 -12 -16 -118 -36 -234 -33 -195 -34 -213 -20 -228 15 -14 19 -14 43 -1 23 13 29 26 42 100 l16 85 40 6 c22 4 41 6 43 5 1 -2 24 -45 50 -97 49 -97 73 -117 108 -89 21 18 18 35 -26 121 -22 43 -40 83 -40 88 0 5 13 14 29 21 67 27 108 105 91 171 -27 101 -122 143 -269 119z m138 -85 c16 -8 34 -28 41 -44 24 -58 -33 -105 -142 -118 l-51 -6 7 49 c4 27 9 68 13 92 l5 42 50 0 c27 0 62 -7 77 -15z"/>
<path d="M2602 961 c-61 -4 -96 -11 -101 -19 -5 -8 -16 -59 -25 -115 -10 -56 -29 -165 -42 -242 l-25 -140 23 -19 c21 -17 35 -18 157 -12 152 8 174 15 169 54 l-3 27 -123 3 -124 3 7 42 c18 118 10 107 74 107 62 0 81 11 81 47 0 28 -33 38 -92 29 l-40 -7 6 48 c4 26 10 63 13 81 l5 32 102 0 c76 0 107 4 124 16 27 19 29 50 3 64 -20 10 -33 10 -189 1z"/>
<path d="M2046 879 c-24 -33 -80 -114 -123 -179 -43 -65 -81 -119 -84 -119 -3 -1 -34 59 -68 132 -93 200 -94 202 -117 205 -48 7 -56 -22 -94 -337 -12 -100 -17 -168 -11 -174 15 -15 45 -3 58 24 7 14 19 70 28 125 29 188 19 183 85 39 68 -146 74 -155 106 -155 19 0 41 25 113 134 50 74 95 137 101 141 7 4 9 -6 5 -32 -31 -211 -34 -257 -23 -270 18 -22 61 -12 74 17 15 31 68 474 61 495 -4 9 -19 15 -37 15 -25 0 -37 -10 -74 -61z"/>
<path d="M497 898 c-11 -9 -22 -43 -32 -98 -8 -47 -15 -88 -15 -92 0 -5 -54 -8 -120 -8 l-119 0 5 33 c3 17 10 49 16 70 13 53 3 77 -32 77 -35 0 -34 5 -92 -283 -44 -218 -44 -239 -1 -245 31 -5 42 18 64 139 12 63 23 120 25 127 2 9 35 12 119 12 86 0 115 -3 115 -12 -1 -7 -11 -60 -24 -117 -13 -58 -22 -110 -19 -117 8 -20 42 -23 64 -5 21 17 22 21 74 321 29 170 30 196 9 204 -20 8 -17 8 -37 -6z"/>
<path d="M980 883 c-110 -55 -181 -156 -188 -270 -2 -33 1 -78 8 -98 42 -128 219 -193 348 -129 165 82 215 317 94 439 -82 82 -173 102 -262 58z m145 -86 c104 -59 120 -226 30 -306 -72 -63 -157 -63 -230 0 -81 71 -66 202 34 292 34 31 49 37 84 37 25 0 58 -9 82 -23z"/>
<path d="M4310 179 c-290 -9 -944 -26 -1515 -39 -225 -5 -727 -12 -1115 -15 -636 -5 -1378 -25 -1583 -41 -60 -5 -80 -11 -87 -25 -13 -23 -13 -25 6 -43 20 -20 99 -20 404 -1 124 8 553 19 955 25 402 5 951 14 1220 20 270 6 704 15 965 20 731 14 1253 31 1278 41 18 7 23 16 20 37 l-3 27 -150 1 c-82 1 -260 -2 -395 -7z"/>
</g>
</svg>