<?xml version="1.0" encoding="utf-8"?>
<!DOCTYPE svg PUBLIC "-//W3C//DTD SVG 20010904//EN" "http://www.w3.org/TR/2001/REC-SVG-20010904/DTD/svg10.dtd">
<svg height="111.000000pt" preserveAspectRatio="xMidYMid meet" version="1.0" viewBox="0 0 452.000000 111.000000" width="452.000000pt" xmlns="http://www.w3.org/2000/svg">
<g fill="#000000" stroke="none" transform="translate(0.000000,111.000000) scale(0.100000,-0.100000)">
<path d="M3630 1043 c-187 -209 -540 -744 -589 -896 -17 -51 -1 -90 45 -112 30 -14 37 -14 61 -1 26 13 81 66 112 108 12 16 10 16 -18 8 -21 -6 -31 -5 -31 2 0 21 92 183 185 323 116 177 203 300 317 442 96 121 101 135 49 166 -51 30 -74 23 -131 -40z"/>
<path d="M610 1053 c-92 -7 -319 -44 -390 -64 -77 -21 -130 -45 -142 -63 -12 -18 -9 -71 5 -89 11 -16 16 -16 88 2 80 20 259 39 259 26 0 -4 -24 -33 -52 -64 -69 -74 -170 -240 -262 -432 -92 -191 -121 -272 -106 -300 15 -27 69 -59 101 -59 27 0 119 73 140 111 8 16 6 19 -13 16 -17 -1 -24 4 -26 21 -11 76 148 377 299 568 27 34 49 67 49 73 0 6 -17 30 -37 53 l-38 41 65 -6 c304 -31 283 -35 302 54 15 75 7 105 -33 113 -31 6 -122 6 -209 -1z"/>
<path d="M2544 925 c-54 -61 -60 -65 -100 -65 -35 0 -47 -5 -68 -31 -36 -43 -34 -59 9 -59 19 0 35 -2 35 -4 0 -2 -35 -57 -78 -122 -160 -243 -292 -484 -292 -537 0 -29 54 -77 87 -77 27 0 85 49 132 112 12 16 11 17 -18 12 -20 -4 -31 -3 -31 5 0 40 238 439 343 574 25 33 34 37 73 37 40 0 47 4 74 41 34 47 32 59 -11 59 -32 0 -37 11 -14 30 27 22 17 48 -25 70 -21 11 -44 20 -49 20 -5 0 -36 -29 -67 -65z"/>
<path d="M3249 899 c-32 -33 -61 -69 -64 -80 -9 -27 19 -57 61 -65 37 -7 77 16 129 75 41 46 47 58 40 81 -7 23 -27 35 -74 44 -31 5 -37 2 -92 -55z"/>
<path d="M1255 708 c-48 -17 -130 -83 -187 -151 -111 -133 -234 -353 -245 -438 -5 -34 -2 -42 27 -69 18 -16 40 -30 49 -30 9 -1 57 43 108 97 l91 98 -19 -57 c-15 -45 -17 -62 -8 -81 12 -26 57 -57 83 -57 19 0 88 60 118 103 l22 30 -29 -7 c-27 -7 -28 -6 -21 26 8 41 92 181 201 336 74 105 81 119 68 134 -26 29 -71 42 -100 29 -22 -10 -29 -9 -47 7 -23 22 -60 42 -73 41 -4 0 -21 -5 -38 -11z m67 -140 c-27 -35 -74 -101 -105 -148 -63 -96 -236 -284 -237 -258 -1 40 114 221 219 347 54 63 126 121 153 121 15 0 9 -12 -30 -62z"/>
<path d="M2693 694 c-105 -52 -255 -234 -348 -422 -77 -155 -78 -212 -4 -243 l33 -13 93 98 c91 95 107 107 78 56 -8 -14 -14 -41 -15 -62 0 -28 7 -42 31 -62 36 -30 55 -32 90 -8 28 19 99 95 99 107 0 4 -11 4 -25 1 -19 -5 -25 -2 -25 9 0 36 105 211 233 389 31 43 57 83 57 88 0 4 -20 18 -45 30 -39 19 -47 20 -70 8 -22 -12 -28 -11 -48 7 -24 22 -60 43 -74 43 -5 0 -32 -11 -60 -26z m147 -70 c0 -4 -15 -25 -33 -48 -19 -23 -62 -84 -97 -136 -34 -52 -81 -115 -103 -140 -101 -112 -140 -151 -148 -148 -24 8 127 253 227 367 68 76 154 135 154 105z"/>
<path d="M775 693 c-57 -30 -116 -86 -176 -166 -102 -135 -159 -271 -159 -377 0 -45 4 -56 30 -80 36 -34 93 -50 139 -38 48 13 141 78 190 134 23 26 39 49 37 51 -2 2 -47 -26 -100 -62 -104 -70 -146 -82 -166 -45 -14 27 8 117 46 188 1 2 19 -8 39 -23 45 -30 48 -30 100 -6 80 36 235 254 235 330 0 36 -51 82 -109 100 -50 15 -70 14 -106 -6z m125 -71 c0 -12 -53 -85 -107 -148 -73 -84 -182 -159 -153 -104 22 41 133 167 188 213 56 46 72 55 72 39z"/>
<path d="M1629 658 c-112 -120 -329 -480 -329 -546 0 -14 15 -39 36 -60 43 -43 28 -54 131 103 67 102 229 311 260 336 17 13 17 13 2 -11 -136 -215 -189 -316 -189 -362 0 -25 51 -98 70 -98 4 0 40 51 81 113 75 113 250 339 284 367 23 18 23 18 -49 -90 -69 -104 -156 -275 -156 -306 0 -31 50 -84 80 -84 29 0 69 30 115 86 l38 46 -31 -7 c-39 -8 -40 0 -8 63 26 51 183 292 248 380 22 29 37 60 34 67 -8 21 -53 48 -81 48 -52 0 -208 -161 -379 -390 -50 -67 -92 -120 -94 -118 -10 9 157 243 266 374 34 40 62 77 62 81 0 15 -67 50 -93 50 -55 0 -236 -189 -406 -422 -35 -49 -66 -88 -68 -88 -17 0 160 252 262 372 36 43 65 82 65 87 0 13 -22 29 -64 46 l-38 16 -49 -53z"/>
<path d="M3114 668 c-79 -83 -219 -288 -295 -431 -56 -106 -63 -153 -27 -187 51 -47 103 -30 174 57 l38 46 -32 -6 c-19 -4 -32 -2 -32 4 0 32 131 245 258 417 29 41 51 80 48 87 -6 16 -41 40 -71 49 -16 5 -31 -5 -61 -36z"/>
<path d="M3675 696 c-132 -58 -345 -385 -345 -530 0 -55 18 -77 93 -112 91 -42 142 -29 241 64 95 90 238 322 252 409 8 51 -17 97 -73 136 -70 48 -114 57 -168 33z m115 -88 c-1 -79 -289 -528 -339 -528 -55 0 142 364 273 504 47 51 66 58 66 24z"/>
<path d="M4073 647 c-149 -160 -345 -481 -329 -541 7 -27 52 -76 70 -76 8 0 39 37 70 83 69 102 268 346 332 407 40 38 45 40 29 15 -10 -16 -39 -57 -63 -90 -59 -80 -67 -101 -47 -132 9 -14 31 -31 48 -38 41 -17 64 -5 132 65 46 49 48 52 23 46 -51 -12 -37 10 114 171 32 34 58 70 58 81 0 50 -95 85 -151 57 -48 -24 -225 -207 -343 -353 -54 -67 -100 -122 -103 -122 -15 0 165 243 270 362 32 37 56 72 52 78 -7 11 -49 34 -81 44 -17 5 -33 -6 -81 -57z"/>
</g>
</svg>